<svg width="20" height="20" viewBox="0 0 20 20" fill="none" xmlns="http://www.w3.org/2000/svg">
<g clip-path="url(#clip0_24269_1125)">
<path d="M18.3337 9.23806V10.0047C18.3326 11.8017 17.7507 13.5503 16.6748 14.9896C15.5988 16.4289 14.0864 17.4818 12.3631 17.9913C10.6399 18.5008 8.79804 18.4396 7.11238 17.8169C5.42673 17.1941 3.98754 16.0431 3.00946 14.5356C2.03138 13.0281 1.56682 11.2448 1.68506 9.45166C1.80329 7.65853 2.498 5.95167 3.66556 4.58562C4.83312 3.21958 6.41098 2.26755 8.16382 1.87152C9.91665 1.47549 11.7505 1.65668 13.392 2.38806M18.3337 3.33329L10.0003 11.675L7.50033 9.17496" stroke="white" stroke-width="1.66667" stroke-linecap="round" stroke-linejoin="round"/>
</g>
<defs>
<clipPath id="clip0_24269_1125">
<rect width="20" height="20" fill="white"/>
</clipPath>
</defs>
</svg>
