<svg width="49" height="48" viewBox="0 0 49 48" fill="none" xmlns="http://www.w3.org/2000/svg">
<g opacity="0.84">
<path fill-rule="evenodd" clip-rule="evenodd" d="M16.6746 28.4933L21.2434 33.0621C24.0238 35.8425 28.5316 35.8425 31.312 33.0621C32.2289 32.1452 32.8435 31.0403 33.1556 29.8715L36.3462 33.0621C39.1266 35.8425 43.6344 35.8425 46.4147 33.0621C49.1951 30.2818 49.1951 25.774 46.4147 22.9936L36.3462 12.9251C33.5659 10.1448 29.058 10.1448 26.2777 12.9251C25.3607 13.8421 24.7462 14.9469 24.4341 16.1157L21.2434 12.9251C18.4631 10.1448 13.9553 10.1448 11.1749 12.9251L2.88936 21.2107C-0.296453 24.3965 -0.296453 29.5617 2.88936 32.7475C6.07517 35.9333 11.2404 35.9333 14.4262 32.7475C15.6322 31.5415 16.3817 30.0519 16.6746 28.4933ZM18.7263 15.4422C17.3361 14.0521 15.0822 14.0521 13.692 15.4422C12.3025 16.8318 12.3019 19.0844 13.6903 20.4747L23.7606 30.545C25.1507 31.9352 27.4047 31.9352 28.7948 30.545C30.1843 29.1556 30.185 26.9033 28.797 25.513L18.7263 15.4422ZM11.9091 23.7278L8.65778 20.4765L5.40649 23.7278C3.61085 25.5234 3.61085 28.4347 5.40649 30.2304C7.20213 32.026 10.1134 32.026 11.9091 30.2304C13.7047 28.4347 13.7047 25.5234 11.9091 23.7278ZM28.7919 20.4735C27.4047 19.0831 27.4056 16.8314 28.7948 15.4422C30.185 14.0521 32.4389 14.0521 33.8291 15.4422L43.8976 25.5108C45.2878 26.9009 45.2878 29.1548 43.8976 30.545C42.5074 31.9352 40.2535 31.9352 38.8634 30.545L28.7919 20.4735Z" fill="#030303"/>
</g>
</svg>
